<svg width="203" height="151" viewBox="0 0 203 151" fill="none" xmlns="http://www.w3.org/2000/svg">
<g filter="url(#filter0_d)">
<path d="M197.102 76.0481L49.2074 139.402L50.2254 10.3684L197.102 76.0481Z" fill="#3B24BD"/>
</g>
<path d="M85.7393 88H80.3193L69.7686 70.6924V88H64.3486V61.6953H69.7686L80.3374 79.0391V61.6953H85.7393V88ZM99.1265 88.3613C96.2599 88.3613 93.9233 87.4821 92.1167 85.7236C90.3221 83.9652 89.4248 81.6226 89.4248 78.6958V78.1899C89.4248 76.2267 89.8042 74.4743 90.563 72.9326C91.3218 71.3789 92.3937 70.1865 93.7788 69.3555C95.1759 68.5124 96.7658 68.0908 98.5483 68.0908C101.222 68.0908 103.324 68.9339 104.854 70.6201C106.395 72.3063 107.166 74.6971 107.166 77.7925V79.9243H94.7183C94.8869 81.201 95.3927 82.2248 96.2358 82.9956C97.091 83.7664 98.1689 84.1519 99.4697 84.1519C101.481 84.1519 103.053 83.4232 104.185 81.9658L106.75 84.8384C105.968 85.9465 104.908 86.8136 103.571 87.4399C102.234 88.0542 100.752 88.3613 99.1265 88.3613ZM98.5303 72.3184C97.4945 72.3184 96.6514 72.6676 96.001 73.3662C95.3626 74.0648 94.9531 75.0645 94.7725 76.3652H102.035V75.9497C102.011 74.7935 101.698 73.9022 101.096 73.2759C100.493 72.6375 99.6383 72.3184 98.5303 72.3184ZM117.59 74.2876L120.878 68.4521H126.461L120.896 78.0273L126.696 88H121.095L117.608 81.8574L114.14 88H108.521L114.32 78.0273L108.774 68.4521H114.375L117.59 74.2876ZM135.223 63.6465V68.4521H138.565V72.2822H135.223V82.0381C135.223 82.7607 135.362 83.2786 135.639 83.5918C135.916 83.9049 136.446 84.0615 137.229 84.0615C137.807 84.0615 138.319 84.0194 138.764 83.9351V87.8916C137.74 88.2048 136.687 88.3613 135.603 88.3613C131.941 88.3613 130.074 86.5125 130.002 82.8149V72.2822H127.147V68.4521H130.002V63.6465H135.223Z" fill="#EBD3D6"/>
<defs>
<filter id="filter0_d" x="48.2074" y="9.36839" width="154.404" height="136.197" filterUnits="userSpaceOnUse" color-interpolation-filters="sRGB">
<feFlood flood-opacity="0" result="BackgroundImageFix"/>
<feColorMatrix in="SourceAlpha" type="matrix" values="0 0 0 0 0 0 0 0 0 0 0 0 0 0 0 0 0 0 127 0"/>
<feOffset dx="2" dy="2"/>
<feGaussianBlur stdDeviation="1.5"/>
<feColorMatrix type="matrix" values="0 0 0 0 0 0 0 0 0 0 0 0 0 0 0 0 0 0 0.5 0"/>
<feBlend mode="normal" in2="BackgroundImageFix" result="effect1_dropShadow"/>
<feBlend mode="normal" in="SourceGraphic" in2="effect1_dropShadow" result="shape"/>
</filter>
</defs>
</svg>
